<svg width="258" height="500" viewBox="0 0 258 500" fill="none" xmlns="http://www.w3.org/2000/svg">
<circle cx="8" cy="250" r="250" fill="url(#paint0_radial_642_99)" fill-opacity="0.6"/>
<g filter="url(#filter0_d_642_99)">
<ellipse cx="7.99968" cy="327.769" rx="133.035" ry="83.343" fill="url(#paint1_linear_642_99)" fill-opacity="0.5" shape-rendering="crispEdges"/>
<path d="M140.442 327.769C140.442 350.506 125.73 371.18 101.755 386.199C77.7887 401.213 44.6428 410.519 7.99968 410.519C-28.6434 410.519 -61.7894 401.213 -85.7557 386.199C-109.73 371.18 -124.443 350.506 -124.443 327.769C-124.443 305.032 -109.73 284.359 -85.7557 269.339C-61.7894 254.325 -28.6434 245.019 7.99968 245.019C44.6428 245.019 77.7887 254.325 101.755 269.339C125.73 284.359 140.442 305.032 140.442 327.769Z" stroke="url(#paint2_linear_642_99)" stroke-opacity="0.6" stroke-width="1.18591" shape-rendering="crispEdges"/>
</g>
<circle cx="7.99855" cy="250.056" r="168.776" fill="url(#paint3_radial_642_99)"/>
<g filter="url(#filter1_d_642_99)">
<ellipse cx="7.99947" cy="277.961" rx="165.007" ry="96.5324" fill="url(#paint4_linear_642_99)" fill-opacity="0.5" shape-rendering="crispEdges"/>
</g>
<g filter="url(#filter2_d_642_99)">
<ellipse cx="7.9998" cy="218.03" rx="163.329" ry="94.3" fill="url(#paint5_linear_642_99)" fill-opacity="0.5" shape-rendering="crispEdges"/>
<path d="M170.736 218.03C170.736 243.769 152.661 267.184 123.194 284.197C93.7429 301.201 53.0167 311.737 7.9998 311.737C-37.0171 311.737 -77.7433 301.201 -107.195 284.197C-136.662 267.184 -154.736 243.769 -154.736 218.03C-154.736 192.292 -136.662 168.877 -107.195 151.864C-77.7433 134.859 -37.0171 124.323 7.9998 124.323C53.0167 124.323 93.7429 134.859 123.194 151.864C152.661 168.877 170.736 192.292 170.736 218.03Z" stroke="url(#paint6_linear_642_99)" stroke-opacity="0.6" stroke-width="1.18591" shape-rendering="crispEdges"/>
</g>
<g filter="url(#filter3_d_642_99)">
<ellipse cx="8.00093" cy="140.881" rx="78.8852" ry="53.4669" fill="url(#paint7_linear_642_99)" fill-opacity="0.5" shape-rendering="crispEdges"/>
</g>
<circle cx="7.99798" cy="250.055" r="125.016" fill="url(#paint8_radial_642_99)"/>
<g filter="url(#filter4_d_642_99)">
<path d="M134.143 169.334C134.143 191.687 120.125 212.005 97.293 226.763C74.4672 241.517 42.898 250.662 7.99727 250.662C-26.9035 250.662 -58.4726 241.517 -81.2985 226.763C-104.13 212.005 -118.148 191.687 -118.148 169.334C-118.148 146.981 -104.13 126.664 -81.2985 111.906C-58.4726 97.1518 -26.9035 88.0068 7.99727 88.0068C42.898 88.0068 74.4672 97.1518 97.293 111.906C120.125 126.664 134.143 146.981 134.143 169.334Z" stroke="url(#paint9_linear_642_99)" stroke-opacity="0.6" stroke-width="1.18591" shape-rendering="crispEdges"/>
</g>
<g filter="url(#filter5_d_642_99)">
<path d="M170.736 218.03C170.736 243.769 152.661 267.184 123.194 284.197C93.7429 301.201 53.0167 311.737 7.9998 311.737C-37.0171 311.737 -77.7433 301.201 -107.195 284.197C-136.662 267.184 -154.736 243.769 -154.736 218.03C-154.736 192.292 -136.662 168.877 -107.195 151.864C-77.7433 134.859 -37.0171 124.323 7.9998 124.323C53.0167 124.323 93.7429 134.859 123.194 151.864C152.661 168.877 170.736 192.292 170.736 218.03Z" stroke="url(#paint10_linear_642_99)" stroke-opacity="0.6" stroke-width="1.18591" shape-rendering="crispEdges"/>
</g>
<g filter="url(#filter6_d_642_99)">
<path d="M172.414 277.961C172.414 304.32 154.147 328.293 124.378 345.708C94.6232 363.115 53.4786 373.901 7.99947 373.901C-37.4796 373.901 -78.6243 363.115 -108.379 345.708C-138.148 328.293 -156.415 304.32 -156.415 277.961C-156.415 251.602 -138.148 227.63 -108.379 210.214C-78.6243 192.807 -37.4796 182.022 7.99947 182.022C53.4786 182.022 94.6232 192.807 124.378 210.214C154.147 227.63 172.414 251.602 172.414 277.961Z" stroke="url(#paint11_linear_642_99)" stroke-opacity="0.6" stroke-width="1.18591" shape-rendering="crispEdges"/>
</g>
<g filter="url(#filter7_d_642_99)">
<path d="M86.2932 140.881C86.2932 155.39 77.6167 168.594 63.4485 178.197C49.2837 187.797 29.6818 193.755 8.00093 193.755C-13.6799 193.755 -33.2818 187.797 -47.4467 178.197C-61.6148 168.594 -70.2913 155.39 -70.2913 140.881C-70.2913 126.372 -61.6148 113.168 -47.4467 103.565C-33.2818 93.9641 -13.6799 88.0068 8.00093 88.0068C29.6818 88.0068 49.2837 93.9641 63.4485 103.565C77.6167 113.168 86.2932 126.372 86.2932 140.881Z" stroke="url(#paint12_linear_642_99)" stroke-opacity="0.6" stroke-width="1.18591" shape-rendering="crispEdges"/>
</g>
<defs>
<filter id="filter0_d_642_99" x="-132.744" y="236.718" width="283.859" height="184.475" filterUnits="userSpaceOnUse" color-interpolation-filters="sRGB">
<feFlood flood-opacity="0" result="BackgroundImageFix"/>
<feColorMatrix in="SourceAlpha" type="matrix" values="0 0 0 0 0 0 0 0 0 0 0 0 0 0 0 0 0 0 127 0" result="hardAlpha"/>
<feOffset dx="1.18591" dy="1.18591"/>
<feGaussianBlur stdDeviation="4.44714"/>
<feComposite in2="hardAlpha" operator="out"/>
<feColorMatrix type="matrix" values="0 0 0 0 0.440043 0 0 0 0 0.20092 0 0 0 0 0.679167 0 0 0 0.2 0"/>
<feBlend mode="normal" in2="BackgroundImageFix" result="effect1_dropShadow_642_99"/>
<feBlend mode="normal" in="SourceGraphic" in2="effect1_dropShadow_642_99" result="shape"/>
</filter>
<filter id="filter1_d_642_99" x="-164.716" y="173.721" width="347.803" height="210.853" filterUnits="userSpaceOnUse" color-interpolation-filters="sRGB">
<feFlood flood-opacity="0" result="BackgroundImageFix"/>
<feColorMatrix in="SourceAlpha" type="matrix" values="0 0 0 0 0 0 0 0 0 0 0 0 0 0 0 0 0 0 127 0" result="hardAlpha"/>
<feOffset dx="1.18591" dy="1.18591"/>
<feGaussianBlur stdDeviation="4.44714"/>
<feComposite in2="hardAlpha" operator="out"/>
<feColorMatrix type="matrix" values="0 0 0 0 0.440043 0 0 0 0 0.20092 0 0 0 0 0.679167 0 0 0 0.2 0"/>
<feBlend mode="normal" in2="BackgroundImageFix" result="effect1_dropShadow_642_99"/>
<feBlend mode="normal" in="SourceGraphic" in2="effect1_dropShadow_642_99" result="shape"/>
</filter>
<filter id="filter2_d_642_99" x="-163.037" y="116.022" width="344.446" height="206.389" filterUnits="userSpaceOnUse" color-interpolation-filters="sRGB">
<feFlood flood-opacity="0" result="BackgroundImageFix"/>
<feColorMatrix in="SourceAlpha" type="matrix" values="0 0 0 0 0 0 0 0 0 0 0 0 0 0 0 0 0 0 127 0" result="hardAlpha"/>
<feOffset dx="1.18591" dy="1.18591"/>
<feGaussianBlur stdDeviation="4.44714"/>
<feComposite in2="hardAlpha" operator="out"/>
<feColorMatrix type="matrix" values="0 0 0 0 0.440043 0 0 0 0 0.20092 0 0 0 0 0.679167 0 0 0 0.2 0"/>
<feBlend mode="normal" in2="BackgroundImageFix" result="effect1_dropShadow_642_99"/>
<feBlend mode="normal" in="SourceGraphic" in2="effect1_dropShadow_642_99" result="shape"/>
</filter>
<filter id="filter3_d_642_99" x="-78.5927" y="79.7055" width="175.559" height="124.722" filterUnits="userSpaceOnUse" color-interpolation-filters="sRGB">
<feFlood flood-opacity="0" result="BackgroundImageFix"/>
<feColorMatrix in="SourceAlpha" type="matrix" values="0 0 0 0 0 0 0 0 0 0 0 0 0 0 0 0 0 0 127 0" result="hardAlpha"/>
<feOffset dx="1.18591" dy="1.18591"/>
<feGaussianBlur stdDeviation="4.44714"/>
<feComposite in2="hardAlpha" operator="out"/>
<feColorMatrix type="matrix" values="0 0 0 0 0.440043 0 0 0 0 0.20092 0 0 0 0 0.679167 0 0 0 0.2 0"/>
<feBlend mode="normal" in2="BackgroundImageFix" result="effect1_dropShadow_642_99"/>
<feBlend mode="normal" in="SourceGraphic" in2="effect1_dropShadow_642_99" result="shape"/>
</filter>
<filter id="filter4_d_642_99" x="-126.45" y="79.7055" width="271.266" height="181.629" filterUnits="userSpaceOnUse" color-interpolation-filters="sRGB">
<feFlood flood-opacity="0" result="BackgroundImageFix"/>
<feColorMatrix in="SourceAlpha" type="matrix" values="0 0 0 0 0 0 0 0 0 0 0 0 0 0 0 0 0 0 127 0" result="hardAlpha"/>
<feOffset dx="1.18591" dy="1.18591"/>
<feGaussianBlur stdDeviation="4.44714"/>
<feComposite in2="hardAlpha" operator="out"/>
<feColorMatrix type="matrix" values="0 0 0 0 0.440043 0 0 0 0 0.20092 0 0 0 0 0.679167 0 0 0 0.2 0"/>
<feBlend mode="normal" in2="BackgroundImageFix" result="effect1_dropShadow_642_99"/>
<feBlend mode="normal" in="SourceGraphic" in2="effect1_dropShadow_642_99" result="shape"/>
</filter>
<filter id="filter5_d_642_99" x="-163.037" y="116.022" width="344.446" height="206.389" filterUnits="userSpaceOnUse" color-interpolation-filters="sRGB">
<feFlood flood-opacity="0" result="BackgroundImageFix"/>
<feColorMatrix in="SourceAlpha" type="matrix" values="0 0 0 0 0 0 0 0 0 0 0 0 0 0 0 0 0 0 127 0" result="hardAlpha"/>
<feOffset dx="1.18591" dy="1.18591"/>
<feGaussianBlur stdDeviation="4.44714"/>
<feComposite in2="hardAlpha" operator="out"/>
<feColorMatrix type="matrix" values="0 0 0 0 0.440043 0 0 0 0 0.20092 0 0 0 0 0.679167 0 0 0 0.2 0"/>
<feBlend mode="normal" in2="BackgroundImageFix" result="effect1_dropShadow_642_99"/>
<feBlend mode="normal" in="SourceGraphic" in2="effect1_dropShadow_642_99" result="shape"/>
</filter>
<filter id="filter6_d_642_99" x="-164.716" y="173.721" width="347.803" height="210.853" filterUnits="userSpaceOnUse" color-interpolation-filters="sRGB">
<feFlood flood-opacity="0" result="BackgroundImageFix"/>
<feColorMatrix in="SourceAlpha" type="matrix" values="0 0 0 0 0 0 0 0 0 0 0 0 0 0 0 0 0 0 127 0" result="hardAlpha"/>
<feOffset dx="1.18591" dy="1.18591"/>
<feGaussianBlur stdDeviation="4.44714"/>
<feComposite in2="hardAlpha" operator="out"/>
<feColorMatrix type="matrix" values="0 0 0 0 0.440043 0 0 0 0 0.20092 0 0 0 0 0.679167 0 0 0 0.2 0"/>
<feBlend mode="normal" in2="BackgroundImageFix" result="effect1_dropShadow_642_99"/>
<feBlend mode="normal" in="SourceGraphic" in2="effect1_dropShadow_642_99" result="shape"/>
</filter>
<filter id="filter7_d_642_99" x="-78.5927" y="79.7055" width="175.559" height="124.722" filterUnits="userSpaceOnUse" color-interpolation-filters="sRGB">
<feFlood flood-opacity="0" result="BackgroundImageFix"/>
<feColorMatrix in="SourceAlpha" type="matrix" values="0 0 0 0 0 0 0 0 0 0 0 0 0 0 0 0 0 0 127 0" result="hardAlpha"/>
<feOffset dx="1.18591" dy="1.18591"/>
<feGaussianBlur stdDeviation="4.44714"/>
<feComposite in2="hardAlpha" operator="out"/>
<feColorMatrix type="matrix" values="0 0 0 0 0.440043 0 0 0 0 0.20092 0 0 0 0 0.679167 0 0 0 0.2 0"/>
<feBlend mode="normal" in2="BackgroundImageFix" result="effect1_dropShadow_642_99"/>
<feBlend mode="normal" in="SourceGraphic" in2="effect1_dropShadow_642_99" result="shape"/>
</filter>
<radialGradient id="paint0_radial_642_99" cx="0" cy="0" r="1" gradientUnits="userSpaceOnUse" gradientTransform="translate(8 250) rotate(90) scale(250)">
<stop stop-color="#3E5DFF"/>
<stop offset="1" stop-color="#3E5DFF" stop-opacity="0"/>
</radialGradient>
<linearGradient id="paint1_linear_642_99" x1="141.035" y1="309.73" x2="-124.952" y2="328.927" gradientUnits="userSpaceOnUse">
<stop stop-color="#4E53BE" stop-opacity="0.5"/>
<stop offset="0.885417" stop-color="#33CEFF" stop-opacity="0.7"/>
<stop offset="1" stop-color="white" stop-opacity="0.5"/>
</linearGradient>
<linearGradient id="paint2_linear_642_99" x1="31.2519" y1="447.3" x2="47.8362" y2="262.886" gradientUnits="userSpaceOnUse">
<stop stop-color="white"/>
<stop offset="1" stop-color="white" stop-opacity="0"/>
</linearGradient>
<radialGradient id="paint3_radial_642_99" cx="0" cy="0" r="1" gradientUnits="userSpaceOnUse" gradientTransform="translate(-160.778 311.452) rotate(-19.6638) scale(358.456)">
<stop offset="0.249306" stop-color="white"/>
<stop offset="0.48315" stop-color="#8FF2FF" stop-opacity="0.5"/>
<stop offset="0.627037" stop-color="#220C7A" stop-opacity="0.1"/>
</radialGradient>
<linearGradient id="paint4_linear_642_99" x1="156.043" y1="272.38" x2="-156.87" y2="282.313" gradientUnits="userSpaceOnUse">
<stop stop-color="#4E53BE" stop-opacity="0.1"/>
<stop offset="1" stop-color="#33CEFF"/>
</linearGradient>
<linearGradient id="paint5_linear_642_99" x1="131.843" y1="209.642" x2="-155.126" y2="222.551" gradientUnits="userSpaceOnUse">
<stop stop-color="#4E53BE" stop-opacity="0.1"/>
<stop offset="0.997187" stop-color="#33CEFF"/>
</linearGradient>
<linearGradient id="paint6_linear_642_99" x1="36.5468" y1="353.276" x2="53.8614" y2="144.364" gradientUnits="userSpaceOnUse">
<stop stop-color="white"/>
<stop offset="1" stop-color="white" stop-opacity="0"/>
</linearGradient>
<linearGradient id="paint7_linear_642_99" x1="86.886" y1="129.308" x2="-70.9539" y2="139.838" gradientUnits="userSpaceOnUse">
<stop stop-color="#4E53BE" stop-opacity="0.1"/>
<stop offset="1" stop-color="#33CEFF" stop-opacity="0.9"/>
</linearGradient>
<radialGradient id="paint8_radial_642_99" cx="0" cy="0" r="1" gradientUnits="userSpaceOnUse" gradientTransform="translate(32.3584 485.686) rotate(-83.1976) scale(363.204)">
<stop offset="0.338542" stop-color="#68FFF6" stop-opacity="0.1"/>
<stop offset="0.802083" stop-color="#FFBFE9"/>
<stop offset="1" stop-color="white"/>
</radialGradient>
<linearGradient id="paint9_linear_642_99" x1="22.3666" y1="251.255" x2="30.8364" y2="102.699" gradientUnits="userSpaceOnUse">
<stop stop-color="white"/>
<stop offset="1" stop-color="white" stop-opacity="0"/>
</linearGradient>
<linearGradient id="paint10_linear_642_99" x1="16.1158" y1="314.805" x2="35.4543" y2="138.766" gradientUnits="userSpaceOnUse">
<stop stop-color="white"/>
<stop offset="1" stop-color="white" stop-opacity="0"/>
</linearGradient>
<linearGradient id="paint11_linear_642_99" x1="20.0239" y1="377.719" x2="23.2837" y2="192.47" gradientUnits="userSpaceOnUse">
<stop stop-color="white"/>
<stop offset="1" stop-color="white" stop-opacity="0"/>
</linearGradient>
<linearGradient id="paint12_linear_642_99" x1="21.7887" y1="217.563" x2="33.2836" y2="99.4178" gradientUnits="userSpaceOnUse">
<stop stop-color="white"/>
<stop offset="1" stop-color="white" stop-opacity="0"/>
</linearGradient>
</defs>
</svg>
