<svg width="184" height="190" viewBox="0 0 184 190" fill="none" xmlns="http://www.w3.org/2000/svg">
<circle cx="137.22" cy="137.22" r="137.22" fill="url(#paint0_radial_618_140)" fill-opacity="0.6"/>
<g filter="url(#filter0_d_618_140)">
<ellipse cx="137.22" cy="179.906" rx="73.0206" ry="45.7454" fill="url(#paint1_linear_618_140)" fill-opacity="0.5" shape-rendering="crispEdges"/>
<path d="M209.915 179.906C209.915 192.386 201.84 203.734 188.681 211.977C175.526 220.218 157.333 225.326 137.22 225.326C117.108 225.326 98.9144 220.218 85.7597 211.977C72.6006 203.734 64.5252 192.386 64.5252 179.906C64.5252 167.426 72.6006 156.079 85.7597 147.835C98.9144 139.594 117.108 134.486 137.22 134.486C157.333 134.486 175.526 139.594 188.681 147.835C201.84 156.079 209.915 167.426 209.915 179.906Z" stroke="url(#paint2_linear_618_140)" stroke-opacity="0.6" stroke-width="0.650921" shape-rendering="crispEdges"/>
</g>
<circle cx="137.22" cy="137.251" r="92.6382" fill="url(#paint3_radial_618_140)"/>
<g filter="url(#filter1_d_618_140)">
<ellipse cx="137.22" cy="152.568" rx="90.5694" ry="52.9848" fill="url(#paint4_linear_618_140)" fill-opacity="0.5" shape-rendering="crispEdges"/>
</g>
<g filter="url(#filter2_d_618_140)">
<ellipse cx="137.22" cy="119.673" rx="89.6482" ry="51.7595" fill="url(#paint5_linear_618_140)" fill-opacity="0.5" shape-rendering="crispEdges"/>
<path d="M226.543 119.673C226.543 133.8 216.622 146.652 200.448 155.99C184.283 165.324 161.929 171.107 137.22 171.107C112.511 171.107 90.1572 165.324 73.9918 155.99C57.8179 146.652 47.8972 133.8 47.8972 119.673C47.8972 105.545 57.8179 92.6933 73.9918 83.3551C90.1572 74.0218 112.511 68.2387 137.22 68.2387C161.929 68.2387 184.283 74.0218 200.448 83.3551C216.622 92.6933 226.543 105.545 226.543 119.673Z" stroke="url(#paint6_linear_618_140)" stroke-opacity="0.6" stroke-width="0.650921" shape-rendering="crispEdges"/>
</g>
<g filter="url(#filter3_d_618_140)">
<ellipse cx="137.221" cy="77.3268" rx="43.2986" ry="29.347" fill="url(#paint7_linear_618_140)" fill-opacity="0.5" shape-rendering="crispEdges"/>
</g>
<circle cx="137.219" cy="137.25" r="68.619" fill="url(#paint8_radial_618_140)"/>
<g filter="url(#filter4_d_618_140)">
<path d="M206.458 92.9444C206.458 105.214 198.763 116.366 186.231 124.466C173.703 132.564 156.375 137.584 137.219 137.584C118.062 137.584 100.735 132.564 88.2059 124.466C75.6739 116.366 67.9798 105.214 67.9798 92.9444C67.9798 80.6752 75.6739 69.5233 88.2059 61.423C100.735 53.3248 118.062 48.3053 137.219 48.3053C156.375 48.3053 173.703 53.3248 186.231 61.423C198.763 69.5233 206.458 80.6752 206.458 92.9444Z" stroke="url(#paint9_linear_618_140)" stroke-opacity="0.6" stroke-width="0.650921" shape-rendering="crispEdges"/>
</g>
<g filter="url(#filter5_d_618_140)">
<path d="M226.543 119.673C226.543 133.8 216.622 146.652 200.448 155.99C184.283 165.324 161.929 171.107 137.22 171.107C112.511 171.107 90.1572 165.324 73.9918 155.99C57.8179 146.652 47.8972 133.8 47.8972 119.673C47.8972 105.545 57.8179 92.6933 73.9918 83.3551C90.1572 74.0218 112.511 68.2387 137.22 68.2387C161.929 68.2387 184.283 74.0218 200.448 83.3551C216.622 92.6933 226.543 105.545 226.543 119.673Z" stroke="url(#paint10_linear_618_140)" stroke-opacity="0.6" stroke-width="0.650921" shape-rendering="crispEdges"/>
</g>
<g filter="url(#filter6_d_618_140)">
<path d="M227.464 152.568C227.464 167.036 217.437 180.194 201.098 189.753C184.766 199.307 162.182 205.227 137.22 205.227C112.257 205.227 89.6737 199.307 73.3419 189.753C57.0023 180.194 46.9759 167.036 46.9759 152.568C46.9759 138.1 57.0023 124.942 73.3419 115.383C89.6737 105.828 112.257 99.9084 137.22 99.9084C162.182 99.9084 184.766 105.828 201.098 115.383C217.437 124.942 227.464 138.1 227.464 152.568Z" stroke="url(#paint11_linear_618_140)" stroke-opacity="0.6" stroke-width="0.650921" shape-rendering="crispEdges"/>
</g>
<g filter="url(#filter7_d_618_140)">
<path d="M180.194 77.3268C180.194 85.2906 175.432 92.538 167.655 97.8089C159.88 103.079 149.121 106.348 137.221 106.348C125.321 106.348 114.562 103.079 106.787 97.8089C99.0102 92.538 94.2478 85.2906 94.2478 77.3268C94.2478 69.3631 99.0102 62.1157 106.787 56.8448C114.562 51.5752 125.321 48.3053 137.221 48.3053C149.121 48.3053 159.88 51.5752 167.655 56.8448C175.432 62.1157 180.194 69.3631 180.194 77.3268Z" stroke="url(#paint12_linear_618_140)" stroke-opacity="0.6" stroke-width="0.650921" shape-rendering="crispEdges"/>
</g>
<defs>
<filter id="filter0_d_618_140" x="59.9687" y="129.93" width="155.805" height="101.255" filterUnits="userSpaceOnUse" color-interpolation-filters="sRGB">
<feFlood flood-opacity="0" result="BackgroundImageFix"/>
<feColorMatrix in="SourceAlpha" type="matrix" values="0 0 0 0 0 0 0 0 0 0 0 0 0 0 0 0 0 0 127 0" result="hardAlpha"/>
<feOffset dx="0.650921" dy="0.650921"/>
<feGaussianBlur stdDeviation="2.44095"/>
<feComposite in2="hardAlpha" operator="out"/>
<feColorMatrix type="matrix" values="0 0 0 0 0.440043 0 0 0 0 0.20092 0 0 0 0 0.679167 0 0 0 0.2 0"/>
<feBlend mode="normal" in2="BackgroundImageFix" result="effect1_dropShadow_618_140"/>
<feBlend mode="normal" in="SourceGraphic" in2="effect1_dropShadow_618_140" result="shape"/>
</filter>
<filter id="filter1_d_618_140" x="42.4194" y="95.352" width="190.902" height="115.733" filterUnits="userSpaceOnUse" color-interpolation-filters="sRGB">
<feFlood flood-opacity="0" result="BackgroundImageFix"/>
<feColorMatrix in="SourceAlpha" type="matrix" values="0 0 0 0 0 0 0 0 0 0 0 0 0 0 0 0 0 0 127 0" result="hardAlpha"/>
<feOffset dx="0.650921" dy="0.650921"/>
<feGaussianBlur stdDeviation="2.44095"/>
<feComposite in2="hardAlpha" operator="out"/>
<feColorMatrix type="matrix" values="0 0 0 0 0.440043 0 0 0 0 0.20092 0 0 0 0 0.679167 0 0 0 0.2 0"/>
<feBlend mode="normal" in2="BackgroundImageFix" result="effect1_dropShadow_618_140"/>
<feBlend mode="normal" in="SourceGraphic" in2="effect1_dropShadow_618_140" result="shape"/>
</filter>
<filter id="filter2_d_618_140" x="43.3408" y="63.6822" width="189.06" height="113.283" filterUnits="userSpaceOnUse" color-interpolation-filters="sRGB">
<feFlood flood-opacity="0" result="BackgroundImageFix"/>
<feColorMatrix in="SourceAlpha" type="matrix" values="0 0 0 0 0 0 0 0 0 0 0 0 0 0 0 0 0 0 127 0" result="hardAlpha"/>
<feOffset dx="0.650921" dy="0.650921"/>
<feGaussianBlur stdDeviation="2.44095"/>
<feComposite in2="hardAlpha" operator="out"/>
<feColorMatrix type="matrix" values="0 0 0 0 0.440043 0 0 0 0 0.20092 0 0 0 0 0.679167 0 0 0 0.2 0"/>
<feBlend mode="normal" in2="BackgroundImageFix" result="effect1_dropShadow_618_140"/>
<feBlend mode="normal" in="SourceGraphic" in2="effect1_dropShadow_618_140" result="shape"/>
</filter>
<filter id="filter3_d_618_140" x="89.6914" y="43.7489" width="96.361" height="68.4578" filterUnits="userSpaceOnUse" color-interpolation-filters="sRGB">
<feFlood flood-opacity="0" result="BackgroundImageFix"/>
<feColorMatrix in="SourceAlpha" type="matrix" values="0 0 0 0 0 0 0 0 0 0 0 0 0 0 0 0 0 0 127 0" result="hardAlpha"/>
<feOffset dx="0.650921" dy="0.650921"/>
<feGaussianBlur stdDeviation="2.44095"/>
<feComposite in2="hardAlpha" operator="out"/>
<feColorMatrix type="matrix" values="0 0 0 0 0.440043 0 0 0 0 0.20092 0 0 0 0 0.679167 0 0 0 0.2 0"/>
<feBlend mode="normal" in2="BackgroundImageFix" result="effect1_dropShadow_618_140"/>
<feBlend mode="normal" in="SourceGraphic" in2="effect1_dropShadow_618_140" result="shape"/>
</filter>
<filter id="filter4_d_618_140" x="63.4233" y="43.7489" width="148.893" height="99.693" filterUnits="userSpaceOnUse" color-interpolation-filters="sRGB">
<feFlood flood-opacity="0" result="BackgroundImageFix"/>
<feColorMatrix in="SourceAlpha" type="matrix" values="0 0 0 0 0 0 0 0 0 0 0 0 0 0 0 0 0 0 127 0" result="hardAlpha"/>
<feOffset dx="0.650921" dy="0.650921"/>
<feGaussianBlur stdDeviation="2.44095"/>
<feComposite in2="hardAlpha" operator="out"/>
<feColorMatrix type="matrix" values="0 0 0 0 0.440043 0 0 0 0 0.20092 0 0 0 0 0.679167 0 0 0 0.2 0"/>
<feBlend mode="normal" in2="BackgroundImageFix" result="effect1_dropShadow_618_140"/>
<feBlend mode="normal" in="SourceGraphic" in2="effect1_dropShadow_618_140" result="shape"/>
</filter>
<filter id="filter5_d_618_140" x="43.3408" y="63.6822" width="189.06" height="113.283" filterUnits="userSpaceOnUse" color-interpolation-filters="sRGB">
<feFlood flood-opacity="0" result="BackgroundImageFix"/>
<feColorMatrix in="SourceAlpha" type="matrix" values="0 0 0 0 0 0 0 0 0 0 0 0 0 0 0 0 0 0 127 0" result="hardAlpha"/>
<feOffset dx="0.650921" dy="0.650921"/>
<feGaussianBlur stdDeviation="2.44095"/>
<feComposite in2="hardAlpha" operator="out"/>
<feColorMatrix type="matrix" values="0 0 0 0 0.440043 0 0 0 0 0.20092 0 0 0 0 0.679167 0 0 0 0.2 0"/>
<feBlend mode="normal" in2="BackgroundImageFix" result="effect1_dropShadow_618_140"/>
<feBlend mode="normal" in="SourceGraphic" in2="effect1_dropShadow_618_140" result="shape"/>
</filter>
<filter id="filter6_d_618_140" x="42.4194" y="95.352" width="190.902" height="115.733" filterUnits="userSpaceOnUse" color-interpolation-filters="sRGB">
<feFlood flood-opacity="0" result="BackgroundImageFix"/>
<feColorMatrix in="SourceAlpha" type="matrix" values="0 0 0 0 0 0 0 0 0 0 0 0 0 0 0 0 0 0 127 0" result="hardAlpha"/>
<feOffset dx="0.650921" dy="0.650921"/>
<feGaussianBlur stdDeviation="2.44095"/>
<feComposite in2="hardAlpha" operator="out"/>
<feColorMatrix type="matrix" values="0 0 0 0 0.440043 0 0 0 0 0.20092 0 0 0 0 0.679167 0 0 0 0.2 0"/>
<feBlend mode="normal" in2="BackgroundImageFix" result="effect1_dropShadow_618_140"/>
<feBlend mode="normal" in="SourceGraphic" in2="effect1_dropShadow_618_140" result="shape"/>
</filter>
<filter id="filter7_d_618_140" x="89.6914" y="43.7489" width="96.361" height="68.4578" filterUnits="userSpaceOnUse" color-interpolation-filters="sRGB">
<feFlood flood-opacity="0" result="BackgroundImageFix"/>
<feColorMatrix in="SourceAlpha" type="matrix" values="0 0 0 0 0 0 0 0 0 0 0 0 0 0 0 0 0 0 127 0" result="hardAlpha"/>
<feOffset dx="0.650921" dy="0.650921"/>
<feGaussianBlur stdDeviation="2.44095"/>
<feComposite in2="hardAlpha" operator="out"/>
<feColorMatrix type="matrix" values="0 0 0 0 0.440043 0 0 0 0 0.20092 0 0 0 0 0.679167 0 0 0 0.2 0"/>
<feBlend mode="normal" in2="BackgroundImageFix" result="effect1_dropShadow_618_140"/>
<feBlend mode="normal" in="SourceGraphic" in2="effect1_dropShadow_618_140" result="shape"/>
</filter>
<radialGradient id="paint0_radial_618_140" cx="0" cy="0" r="1" gradientUnits="userSpaceOnUse" gradientTransform="translate(137.22 137.22) rotate(90) scale(137.22)">
<stop stop-color="#3E5DFF"/>
<stop offset="1" stop-color="#3E5DFF" stop-opacity="0"/>
</radialGradient>
<linearGradient id="paint1_linear_618_140" x1="210.241" y1="170.005" x2="64.2456" y2="180.542" gradientUnits="userSpaceOnUse">
<stop stop-color="#4E53BE" stop-opacity="0.5"/>
<stop offset="0.885417" stop-color="#33CEFF" stop-opacity="0.7"/>
<stop offset="1" stop-color="white" stop-opacity="0.5"/>
</linearGradient>
<linearGradient id="paint2_linear_618_140" x1="149.983" y1="245.515" x2="159.086" y2="144.293" gradientUnits="userSpaceOnUse">
<stop stop-color="white"/>
<stop offset="1" stop-color="white" stop-opacity="0"/>
</linearGradient>
<radialGradient id="paint3_radial_618_140" cx="0" cy="0" r="1" gradientUnits="userSpaceOnUse" gradientTransform="translate(44.5816 170.95) rotate(-19.6638) scale(196.75)">
<stop offset="0.249306" stop-color="white"/>
<stop offset="0.48315" stop-color="#8FF2FF" stop-opacity="0.5"/>
<stop offset="0.627037" stop-color="#220C7A" stop-opacity="0.1"/>
</radialGradient>
<linearGradient id="paint4_linear_618_140" x1="218.478" y1="149.504" x2="46.7262" y2="154.957" gradientUnits="userSpaceOnUse">
<stop stop-color="#4E53BE" stop-opacity="0.1"/>
<stop offset="1" stop-color="#33CEFF"/>
</linearGradient>
<linearGradient id="paint5_linear_618_140" x1="205.195" y1="115.069" x2="47.6834" y2="122.154" gradientUnits="userSpaceOnUse">
<stop stop-color="#4E53BE" stop-opacity="0.1"/>
<stop offset="0.997187" stop-color="#33CEFF"/>
</linearGradient>
<linearGradient id="paint6_linear_618_140" x1="152.889" y1="193.907" x2="162.392" y2="79.2388" gradientUnits="userSpaceOnUse">
<stop stop-color="white"/>
<stop offset="1" stop-color="white" stop-opacity="0"/>
</linearGradient>
<linearGradient id="paint7_linear_618_140" x1="180.519" y1="70.9748" x2="93.8842" y2="76.7543" gradientUnits="userSpaceOnUse">
<stop stop-color="#4E53BE" stop-opacity="0.1"/>
<stop offset="1" stop-color="#33CEFF" stop-opacity="0.9"/>
</linearGradient>
<radialGradient id="paint8_radial_618_140" cx="0" cy="0" r="1" gradientUnits="userSpaceOnUse" gradientTransform="translate(150.59 266.584) rotate(-83.1976) scale(199.356)">
<stop offset="0.338542" stop-color="#68FFF6" stop-opacity="0.1"/>
<stop offset="0.802083" stop-color="#FFBFE9"/>
<stop offset="1" stop-color="white"/>
</radialGradient>
<linearGradient id="paint9_linear_618_140" x1="145.106" y1="137.909" x2="149.755" y2="56.3697" gradientUnits="userSpaceOnUse">
<stop stop-color="white"/>
<stop offset="1" stop-color="white" stop-opacity="0"/>
</linearGradient>
<linearGradient id="paint10_linear_618_140" x1="141.675" y1="172.79" x2="152.289" y2="76.1658" gradientUnits="userSpaceOnUse">
<stop stop-color="white"/>
<stop offset="1" stop-color="white" stop-opacity="0"/>
</linearGradient>
<linearGradient id="paint11_linear_618_140" x1="143.82" y1="207.323" x2="145.609" y2="105.643" gradientUnits="userSpaceOnUse">
<stop stop-color="white"/>
<stop offset="1" stop-color="white" stop-opacity="0"/>
</linearGradient>
<linearGradient id="paint12_linear_618_140" x1="144.789" y1="119.417" x2="151.098" y2="54.5686" gradientUnits="userSpaceOnUse">
<stop stop-color="white"/>
<stop offset="1" stop-color="white" stop-opacity="0"/>
</linearGradient>
</defs>
</svg>
