<svg width="27" height="24" viewBox="0 0 27 24" fill="none" xmlns="http://www.w3.org/2000/svg">
<path fill-rule="evenodd" clip-rule="evenodd" d="M6.47126 23.5021C2.59187 21.1417 0 16.8738 0 12.0001C0 9.25743 0.820352 6.70663 2.23028 4.57959C2.56384 7.26616 3.70747 9.8708 5.66118 11.9995L5.66024 12.0001L5.678 12.0177C5.80414 12.155 5.93308 12.2909 6.06669 12.4241C6.2003 12.5574 6.33578 12.6863 6.47313 12.8128L10.9299 17.2695C11.6522 17.9922 12.0166 18.8717 12.0166 19.8936V20.2748C12.0166 21.6599 11.3168 22.8485 10.1059 23.5204C8.93886 24.1675 7.6177 24.1585 6.47126 23.5021Z" fill="#43F8C1"/>
<path fill-rule="evenodd" clip-rule="evenodd" d="M5.66137 11.9994C3.70766 9.87068 2.56403 7.26604 2.23047 4.57947C3.32458 2.92689 4.77562 1.53014 6.47145 0.49807C7.61696 -0.158399 8.93905 -0.167368 10.106 0.479664C11.317 1.15155 12.0168 2.34013 12.0168 3.72529V4.1065C12.0168 5.12769 11.6533 6.00661 10.932 6.729L5.66137 11.9994Z" fill="#5EB4DA"/>
<path fill-rule="evenodd" clip-rule="evenodd" d="M20.4374 0.497953C24.3168 2.85838 26.9087 7.12627 26.9087 12C26.9087 14.7427 26.0883 17.2935 24.6784 19.4205C24.3448 16.7339 23.2003 14.1293 21.2475 12.0006L21.2484 11.9999L21.2307 11.9824C21.1045 11.8451 20.9747 11.7092 20.842 11.5759C20.7084 11.4427 20.5729 11.3138 20.4355 11.1873L15.9787 6.73061C15.2565 6.00791 14.8921 5.12844 14.8921 4.10648V3.72527C14.8921 2.3401 15.5919 1.15153 16.8028 0.47964C17.9698 -0.167392 19.291 -0.158329 20.4374 0.497953Z" fill="#4F54D2"/>
<path fill-rule="evenodd" clip-rule="evenodd" d="M21.2475 12.0006C23.2003 14.1293 24.3448 16.7339 24.6784 19.4205C23.5833 21.073 22.1332 22.4698 20.4374 23.5019C19.2919 24.1583 17.9698 24.1674 16.8028 23.5203C15.5919 22.8484 14.8921 21.6598 14.8921 20.2747V19.8935C14.8921 18.8723 15.2555 17.9934 15.9769 17.271L21.2475 12.0006Z" fill="#6B91E6"/>
</svg>
