<svg width="43" height="39" viewBox="0 0 43 39" fill="none" xmlns="http://www.w3.org/2000/svg">
<path fill-rule="evenodd" clip-rule="evenodd" d="M10.2025 38.032C4.08629 34.2124 0 27.3058 0 19.419C0 14.9806 1.29335 10.8528 3.51621 7.41074C4.04209 11.7583 5.84512 15.9732 8.9253 19.418L8.92383 19.419L8.95182 19.4474C9.15069 19.6697 9.35398 19.8896 9.56462 20.1052C9.77527 20.3208 9.98886 20.5294 10.2054 20.7341L17.2319 27.9461C18.3706 29.1156 18.9451 30.5388 18.9451 32.1926V32.8095C18.9451 35.051 17.8418 36.9744 15.9327 38.0616C14.0928 39.1088 12.0099 39.0942 10.2025 38.032Z" fill="#43F8C1"/>
<path fill-rule="evenodd" clip-rule="evenodd" d="M8.92521 19.418C5.84503 15.9732 4.042 11.7583 3.51611 7.41074C5.24107 4.73647 7.52875 2.47618 10.2024 0.80603C12.0083 -0.256299 14.0927 -0.270813 15.9326 0.776245C17.8417 1.86352 18.945 3.78693 18.945 6.02847V6.64536C18.945 8.2979 18.372 9.72021 17.2348 10.8892L8.92521 19.418Z" fill="#5EB4DA"/>
<path fill-rule="evenodd" clip-rule="evenodd" d="M32.2216 0.805842C38.3378 4.6256 42.4241 11.5321 42.4241 19.4189C42.4241 23.8573 41.1308 27.9851 38.9079 31.4271C38.382 27.0797 36.5775 22.8647 33.4988 19.42L33.5003 19.4189L33.4723 19.3905C33.2734 19.1683 33.0687 18.9484 32.8595 18.7328C32.6488 18.5171 32.4352 18.3085 32.2187 18.1038L25.1922 10.8918C24.0535 9.72232 23.479 8.29912 23.479 6.64533V6.02843C23.479 3.7869 24.5823 1.86348 26.4914 0.776207C28.3313 -0.270851 30.4142 -0.256185 32.2216 0.805842Z" fill="#4F54D2"/>
<path fill-rule="evenodd" clip-rule="evenodd" d="M33.4988 19.42C36.5775 22.8647 38.382 27.0797 38.9079 31.4271C37.1815 34.1014 34.8953 36.3618 32.2216 38.0318C30.4157 39.0942 28.3313 39.1088 26.4914 38.0616C24.5823 36.9744 23.479 35.0509 23.479 32.8095V32.1926C23.479 30.54 24.052 29.1178 25.1892 27.9487L33.4988 19.42Z" fill="#6B91E6"/>
</svg>
